<svg width="286" height="193" viewBox="0 0 286 193" fill="none" xmlns="http://www.w3.org/2000/svg">
<path id="logo" fill-rule="evenodd" clip-rule="evenodd" d="M66.6579 109.981L66.6575 109.981L66.6574 109.981C64.0141 110.984 62.0733 111.72 61.8535 111.937L61.5304 111.777C60.8842 112.097 59.4303 117.053 57.6534 124.407L57.3303 125.526L64.1151 126.165C78.6538 127.444 93.8388 129.842 115.97 134.319C133.74 137.676 148.925 141.513 150.54 142.632C152.802 144.231 153.932 146.469 153.771 148.547C153.448 151.105 152.317 152.864 150.217 153.663C148.763 154.302 148.44 154.302 146.986 153.663C145.532 153.023 143.917 151.105 143.917 149.666C143.917 148.707 140.04 146.309 135.355 144.39C125.501 140.234 102.4 134.638 81.7231 131.281C72.0306 129.842 57.3303 128.084 57.0072 128.563C56.361 129.043 44.715 169.873 43.2612 178.026C41.8073 186.499 40.9996 189.217 39.3841 191.135C37.7687 193.054 35.6687 193.054 34.0533 191.455C33.084 190.496 32.9225 190.016 33.084 187.618C33.2456 186.019 35.3456 178.985 37.6072 171.951L51.6763 128.084L46.6685 127.604C38.9145 127.125 17.9141 127.604 10.6447 128.563C9.33845 128.687 7.98429 128.833 6.74824 128.967L6.74787 128.967C4.77402 129.181 3.1014 129.363 2.40607 129.363H2.40587C1.26078 129.363 0.740132 129.363 0.503406 129.104C0.30603 128.887 0.30603 128.491 0.30603 127.764V126.165L13.0678 122.968C26.9604 119.451 34.0683 117.373 47.9609 112.896L57.1688 109.859L67.0228 80.7627C78.6538 46.231 83.9847 31.683 89.3156 19.3731L90.1233 17.6145L88.0232 18.4139C83.3385 20.1724 72.8383 25.1284 68.3151 27.5264C50.2225 37.5981 36.4914 49.7481 33.099 58.8607C31.6451 62.6975 32.4529 63.4969 38.753 65.0956C44.407 66.5344 45.6993 69.2521 41.8223 71.81C38.2684 74.0482 31.9682 72.4495 28.7374 68.4528C27.4451 66.8541 27.2835 66.2146 27.122 63.1771C26.9604 59.9798 27.122 59.5001 28.5759 56.4626C30.8374 51.8264 33.7452 48.1495 39.7222 42.3942C45.6993 36.6389 51.8379 32.0027 60.238 26.8869C67.1843 22.5705 79.9462 16.1757 87.7002 13.1382L93.1926 11.0599L95.6157 7.22305C96.9081 5.14476 98.685 2.74672 99.6543 1.94738C103.047 -1.25 105.631 0.348691 104.985 5.46449L104.824 7.86253L108.378 6.90331C119.685 4.18554 132.609 3.06646 142.301 3.86581C157.648 4.98489 167.825 10.1007 172.025 18.7336C173.64 21.7711 173.64 21.931 173.64 27.5264C173.64 32.1626 173.479 33.6014 172.671 36.3192C163.786 61.7383 128.57 86.6778 70.7383 108.42C69.2948 108.981 67.9007 109.51 66.661 109.98L66.6588 109.981L66.6579 109.981ZM101.041 5.03603C101.016 5.00277 100.985 4.98489 100.947 4.98489H101.108C101.097 4.98489 101.074 5.00269 101.041 5.03603ZM101.041 5.03603C101.33 5.42469 100.747 7.91294 100.3 8.502C99.8158 9.14148 98.0388 9.78095 98.0388 9.30134C98.0388 9.00295 100.571 5.50211 101.041 5.03603ZM62.1766 107.461C62.1766 107.164 62.8553 104.914 63.7933 101.804L63.7935 101.803L63.7938 101.802C64.3734 99.8802 65.0519 97.6305 65.7305 95.3108C75.7461 61.7383 85.7617 33.2817 91.9003 20.9718L91.9266 20.9213C94.3246 16.3332 94.4914 16.0141 96.2619 15.5362C97.2311 15.0566 98.2004 14.8968 98.3619 14.8968C98.5235 15.2165 94.4849 26.2474 92.0618 32.0027C87.7002 42.3942 79.6231 59.0205 77.3615 62.2179C76.0691 63.8166 75.7461 65.8949 76.5538 67.3337C77.1999 68.6127 79.6231 68.6127 80.5923 67.3337C82.2077 65.735 98.5235 26.8869 101.593 17.6145C102.239 15.5362 103.208 13.6178 103.531 13.2981C104.016 12.9783 106.924 12.179 110.154 11.3796C131.316 6.42371 151.671 7.06318 162.009 12.9783C165.079 14.8968 168.794 18.8935 169.602 21.7711C170.733 24.8086 170.733 30.0843 169.602 33.7613C163.463 57.4219 127.439 83.4805 71.8691 104.423C67.5074 106.182 63.6304 107.621 63.1458 107.781C62.4996 108.1 62.3381 107.94 62.6612 107.141L62.1766 107.461ZM51.8379 125.206C52.484 125.366 52.9687 124.567 54.4225 119.611C55.2303 116.413 56.038 113.856 56.038 113.856C56.038 113.856 48.7686 116.094 39.8838 119.131L23.7296 124.247L32.4529 124.407C39.8838 124.407 45.0531 124.727 51.8379 125.206ZM163.038 92.44C162.559 93.0963 162.138 93.737 161.804 94.3357C159.371 98.2957 158.56 101.464 159.209 103.523C159.858 105.582 161.804 107.483 163.912 108.117C167.642 109.225 172.831 107.641 189.373 100.83C195.445 98.3328 200.73 96.2969 201.349 96.2378C198.993 104.668 197.585 111.098 197.585 114.034C197.585 117.183 197.742 117.655 198.841 118.442C201.195 120.332 202.451 119.702 203.706 116.081C205.119 112.144 207.473 107.578 212.025 100.65C216.734 93.2501 223.012 84.9052 223.326 85.2201C223.483 85.3775 223.326 86.3221 223.169 87.2667L223.169 87.2669C221.599 92.6203 223.64 95.9268 227.72 95.1395C228.901 94.8435 241.733 89.3987 246.527 87.0469C245.247 89.689 244.59 92.692 245.026 95.1899C245.518 96.9644 247.488 99.5455 248.966 100.191C251.756 101.159 256.517 100.029 262.098 96.9644C263.904 95.9965 268.828 93.0927 273.096 90.5116C275.678 89.0081 278.26 87.4497 280.193 86.2831L280.195 86.2817C281.579 85.4463 282.63 84.812 283.11 84.5428C285.408 83.2523 285.572 83.091 284.751 81.8004L285.08 81.6391C284.751 80.9938 283.93 81.1551 279.662 83.2523C277.036 84.5428 271.126 87.6079 266.858 90.189C256.517 95.9965 250.607 97.9323 249.622 95.3512C249.458 94.8672 249.622 94.7059 250.443 94.7059C253.234 94.7059 257.337 90.189 258.487 86.156C258.979 84.2202 258.979 83.7362 258.322 82.7683C257.009 80.8325 255.368 80.0259 253.398 80.5098C251.955 80.7543 250.528 81.68 249.266 83.0089C249.012 82.9501 248.72 83.0665 248.282 83.3307C245.927 84.9052 229.604 91.6756 227.877 91.9905C227.82 91.9941 227.765 91.9976 227.71 92.0011C226.914 92.0522 226.394 92.0855 226.139 91.8417C225.658 91.3826 226.116 89.9405 227.435 85.7827L227.563 85.3775C228.976 80.654 229.133 80.0242 228.662 78.7646C227.563 76.4028 226.151 76.8752 222.698 80.4965C218.931 84.2754 211.397 94.5097 206.845 101.438C205.119 104.114 203.549 106.319 203.392 106.161C203.263 106.032 204.09 102.919 205.173 98.8397L205.174 98.8393L205.177 98.8274C205.409 97.9509 205.654 97.0298 205.904 96.0842C215.321 63.1769 223.169 40.3465 234.313 13.1074C235.882 9.486 235.882 8.69875 235.411 7.59659C235.097 6.80933 234.626 6.49443 233.685 6.65188C232.586 6.80933 232.115 7.28168 230.546 11.3754C228.348 17.0437 222.541 28.3802 219.245 33.891C216.734 37.9847 216.42 40.189 217.675 41.4486C217.967 41.595 218.259 41.7754 218.503 41.9265C218.785 42.1006 219.004 42.2359 219.088 42.2359C219.559 42.3933 218.774 44.7551 217.047 49.1637C211.214 64.623 205.864 80.6152 202.255 93.0553C201.655 93.0382 199.413 93.92 196.844 94.9306L196.844 94.9307L196.239 95.1688C196.006 95.2604 195.771 95.3524 195.535 95.4445C186.778 99.2461 174.615 103.998 171.372 104.949C162.615 107.008 160.506 103.681 166.507 96.8701C169.101 94.1773 172.345 92.1181 174.453 92.1181C176.723 92.1181 178.507 90.2173 178.021 87.9997C177.534 84.6733 174.777 83.4061 171.048 84.8317C169.636 85.475 167.407 87.3976 165.403 89.5791C165.035 89.4433 163.822 89.4691 161.63 90.067C153.384 92.5665 142.542 93.8162 135.212 93.1914C130.784 93.0351 130.326 92.8789 130.173 91.9416C130.02 91.3168 129.41 90.3795 128.799 89.9108C127.883 88.9735 127.424 88.8173 125.897 88.9735C124.828 89.1297 123.301 89.5984 122.538 90.067C121.774 90.6919 120.553 91.3168 119.637 91.473C117.499 92.2541 115.208 94.9098 113.07 99.44C110.78 104.283 109.405 109.438 109.253 113.812C109.1 117.717 110.016 119.904 112.001 120.686C114.597 121.935 116.735 120.842 120.553 116.468C123.76 113.031 128.341 104.595 129.715 99.7525L130.326 97.253L135.212 96.9406C146.207 96.3157 155.216 95.066 161.783 92.8789C162.241 92.7297 162.66 92.5834 163.038 92.44ZM118.72 112.094C120.705 109.907 122.08 107.72 123.76 103.97V103.658C126.661 97.5654 126.814 96.6281 125.897 96.3157C125.439 96.1595 124.828 95.6908 124.218 95.066C123.454 94.4411 123.149 94.4411 123.149 94.9098C123.149 95.2222 122.385 96.3157 121.622 97.0968C120.705 98.0341 119.331 100.221 118.415 102.096C116.582 106.001 114.139 113.343 114.139 115.062C114.139 115.999 114.292 116.155 115.055 115.687C115.392 115.572 116.304 114.616 117.429 113.436C117.837 113.008 118.273 112.551 118.72 112.094ZM254.875 84.5428C255.696 85.3494 255.039 87.1239 253.069 89.3824C250.935 91.6409 249.13 92.1248 249.622 90.0277C250.443 86.9626 253.726 83.5749 254.875 84.5428Z" fill="#8E1818"/>
</svg>
